<?xml version="1.0" standalone="no"?><!DOCTYPE svg PUBLIC "-//W3C//DTD SVG 1.1//EN"
    "http://www.w3.org/Graphics/SVG/1.1/DTD/svg11.dtd">
<svg t="1668491178179" class="icon" viewBox="0 0 1024 1024" version="1.1"
    xmlns="http://www.w3.org/2000/svg" p-id="943" width="32" height="32"
    xmlns:xlink="http://www.w3.org/1999/xlink">
    <title>qq</title>
    <path
        d="M512.4096 77.7728c-232.0896 0-420.864 188.8256-420.864 420.864 0 232.0896 188.8256 420.864 420.864 420.864 232.0896 0 420.864-188.8256 420.864-420.864s-188.7744-420.864-420.864-420.864z m0 800.8192c-209.5104 0-379.904-170.4448-379.904-379.904 0-209.5104 170.4448-379.904 379.904-379.904 209.5104 0 379.904 170.4448 379.904 379.904 0 209.4592-170.3936 379.904-379.904 379.904z"
        fill="#00A0E9" p-id="944"></path>
    <path
        d="M683.9296 485.376c-1.8944-2.048-3.1232-5.4272-3.2768-8.2432-0.4096-8.448 0.2048-16.9472-0.256-25.3952-0.5632-10.1376-2.7136-20.6336-10.0352-27.5456-6.144-5.7856-6.8608-11.9296-7.168-19.0464-0.1024-2.56-0.3584-5.0688-0.6144-7.6288-3.9424-34.3552-13.0048-66.9184-36.4032-93.44-36.4544-41.3184-83.1488-57.1392-136.9088-49.2032-47.0528 6.912-84.1216 30.464-107.1616 73.4208-13.5168 25.1904-19.0464 52.5312-20.736 80.7424-0.3072 5.4272-0.8192 10.0352-5.888 13.6704-2.7136 1.9456-4.352 5.6832-5.8368 8.9088-6.5024 13.9264-6.656 28.7744-5.376 43.6736 0.3584 4.5056-0.8192 7.8336-4.0448 11.3152-24.6784 26.4704-42.1888 56.9344-48.384 92.9792-2.5088 14.5408-1.2288 29.2864 4.608 43.1104 3.3792 7.9872 9.216 9.9328 15.616 4.3008 7.2704-6.3488 13.4144-13.9776 19.7632-21.3504 2.9696-3.4816 5.1712-7.5776 7.3216-10.8032 11.5712 21.0944 23.0912 42.0352 34.2528 62.3104-7.2704 5.376-16.2304 10.5472-23.296 17.5616-15.36 15.1552-20.8384 45.6704 10.8544 60.1088 2.8672 1.3312 5.8368 2.56 8.9088 3.4304 29.2864 8.3968 58.5728 7.9872 87.9616 0.2048 15.5136-4.096 30.5152-9.0624 42.1888-20.8896 5.8368-5.9392 18.688-5.3248 25.1904-0.1024 6.5024 5.2736 13.4144 10.6496 21.0432 13.8752 22.3232 9.5232 45.824 13.9776 70.144 12.9536 16.7936-0.7168 33.4848-2.4064 48.896-10.0352 15.2064-7.5264 22.6816-19.2 21.5552-33.5872-1.024-13.3632-7.5264-23.808-17.9712-31.6416-5.888-4.4032-12.3904-7.936-17.6128-11.264 11.4688-20.8896 22.9888-41.8304 34.56-62.8736 2.1504 3.2256 4.4032 7.3216 7.3216 10.8544 5.7856 6.9632 11.4176 14.336 18.176 20.2752 7.9872 7.0144 14.1312 4.9664 17.9712-5.0688 4.9152-12.9536 6.2976-26.7776 4.0448-40.1408-6.3488-36.9664-24.3712-68.096-49.408-95.4368z"
        fill="#00A0E9" p-id="945"></path>
</svg>