<?xml version="1.0" standalone="no"?><!DOCTYPE svg PUBLIC "-//W3C//DTD SVG 1.1//EN"
    "http://www.w3.org/Graphics/SVG/1.1/DTD/svg11.dtd">
<svg t="1668491220425" class="icon" viewBox="0 0 1024 1024" version="1.1"
    xmlns="http://www.w3.org/2000/svg" p-id="1409" xmlns:xlink="http://www.w3.org/1999/xlink"
    width="32" height="32">
    <title>jd</title>
    <path
        d="M508.6208 85.76c-232.0896 0-420.864 188.8256-420.864 420.864 0 232.0896 188.8256 420.864 420.864 420.864s420.864-188.8256 420.864-420.864c0.0512-232.0384-188.7744-420.864-420.864-420.864z m0 800.8192c-209.5104 0-379.904-170.4448-379.904-379.904 0-209.5104 170.4448-379.904 379.904-379.904 209.5104 0 379.904 170.4448 379.904 379.904 0.0512 209.4592-170.3936 379.904-379.904 379.904z"
        fill="#00A0E9" p-id="1410"></path>
    <path
        d="M616.6528 320.5632c-40.6016-2.6112-81.4592-1.1264-122.2144-1.3824-0.3584 0-0.7168 0.256-1.5872 0.6144v367.872h7.1168c32 0 64 0.0512 96-0.0512 7.1168 0 14.336-0.1024 21.3504-1.0752 47.0528-6.7072 83.5072-30.72 110.5408-69.2736 18.3296-26.1632 29.2864-55.296 32.9216-87.0912 7.3728-64.9728-9.6768-121.856-56.832-168.3456-24.2176-23.8592-53.7088-39.0656-87.296-41.2672z m101.5808 203.776c-3.7888 32.6144-16.2816 61.3888-39.2192 84.992-22.2208 22.8864-49.152 35.6864-81.7664 35.1232-20.3776-0.3584-40.7552-0.0512-61.8496-0.0512V363.3664c0.5632-0.3584 0.9216-0.768 1.2288-0.768 25.6512 0.1024 51.5584-1.7408 76.9536 0.8704 34.4064 3.5328 60.3136 23.2448 79.5648 51.4048 22.7328 33.0752 29.6448 69.9904 25.088 109.4656zM394.8032 327.6288c0 75.2128 0.2048 150.4256-0.2048 225.6384-0.0512 11.008-1.536 22.6304-5.1712 32.9728-13.0048 36.7616-43.776 57.6512-83.3536 58.1632-6.4512 0.1024-12.9024 0-19.5584 0v43.0592c21.5552 0.8192 42.7008 0.4608 62.9248-6.912 55.3472-20.0704 88.064-66.9184 88.1152-125.7984 0.0512-76.2368 0-152.4736 0-228.6592V319.488h-42.7008c-0.0512 2.9184-0.0512 5.5296-0.0512 8.1408z"
        fill="#00A0E9" p-id="1411"></path>
</svg>