<?xml version="1.0" standalone="no"?><!DOCTYPE svg PUBLIC "-//W3C//DTD SVG 1.1//EN"
    "http://www.w3.org/Graphics/SVG/1.1/DTD/svg11.dtd">
<svg t="1668491304268" class="icon" viewBox="0 0 1024 1024" version="1.1"
    xmlns="http://www.w3.org/2000/svg" p-id="3896" width="16" height="16"
    xmlns:xlink="http://www.w3.org/1999/xlink">
    <title>minus</title>
    <path
        d="M830.08 554.794667a18.901333 18.901333 0 0 0-22.058667 15.402666 322.901333 322.901333 0 0 1-318.464 266.410667c-178.389333 0-323.498667-145.109333-323.498666-323.498667a323.413333 323.413333 0 0 1 591.701333-180.906666 319.829333 319.829333 0 0 1 50.261333 123.818666 19.072 19.072 0 0 0 37.461334-6.656A356.949333 356.949333 0 0 0 789.333333 310.912a361.301333 361.301333 0 0 0-299.733333-159.36A361.429333 361.429333 0 0 0 128 513.109333c0 199.381333 162.218667 361.557333 361.557333 361.557334a360.874667 360.874667 0 0 0 355.925334-297.770667 19.029333 19.029333 0 0 0-15.36-22.101333"
        p-id="3897"></path>
    <path
        d="M284.16 512a20.138667 20.138667 0 0 0 0 40.277333H720.213333a20.138667 20.138667 0 0 0 0-40.277333H284.16z"
        p-id="3898"></path>
</svg>