<?xml version="1.0" standalone="no"?><!DOCTYPE svg PUBLIC "-//W3C//DTD SVG 1.1//EN"
    "http://www.w3.org/Graphics/SVG/1.1/DTD/svg11.dtd">
<svg t="1668490064927" class="icon" viewBox="0 0 1024 1024" version="1.1"
    xmlns="http://www.w3.org/2000/svg" p-id="2357" xmlns:xlink="http://www.w3.org/1999/xlink"
    width="200" height="200">
    <title>sand_storm</title>
    <path d="M368.64 637.44a181.248 87.552 0 1 0 362.496 0 181.248 87.552 0 1 0-362.496 0Z"
        fill="#5886FC" p-id="2358"></path>
    <path d="M414.208 797.184a108.544 52.736 0 1 0 217.088 0 108.544 52.736 0 1 0-217.088 0Z"
        fill="#5886FC" p-id="2359"></path>
    <path
        d="M434.176 601.6c-135.68 0-242.176-54.784-242.176-124.928s106.496-124.928 242.176-124.928S675.84 406.528 675.84 476.672s-105.984 124.928-241.664 124.928z"
        fill="#80AAFF" p-id="2360"></path>
    <path
        d="M434.176 367.104c124.928 0 226.816 49.152 226.816 109.568s-101.376 109.568-226.816 109.568c-124.928 0-226.816-49.152-226.816-109.568s101.376-109.568 226.816-109.568m0-30.72c-146.944 0-257.536 60.416-257.536 140.288s110.592 140.288 257.536 140.288c146.944 0 257.536-60.416 257.536-140.288s-111.104-140.288-257.536-140.288z"
        fill="#FFFFFF" p-id="2361"></path>
    <path
        d="M522.752 452.608C364.544 452.608 240.64 388.096 240.64 305.664S364.544 158.72 522.752 158.72c158.208 0 282.112 64.512 282.112 146.944s-123.392 146.944-282.112 146.944z"
        fill="#B3CFFF" p-id="2362"></path>
    <path
        d="M522.752 174.08c147.456 0 266.752 58.88 266.752 131.584s-119.296 131.584-266.752 131.584S256 378.368 256 305.664 375.808 174.08 522.752 174.08m0-30.72c-75.776 0-147.968 14.848-202.24 41.472-61.44 30.72-95.232 73.216-95.232 120.832s33.792 90.112 95.232 120.32c54.784 26.624 126.464 41.472 202.24 41.472s147.968-14.848 202.24-41.472c61.44-30.208 95.232-73.216 95.232-120.32 0-47.616-33.792-90.112-95.232-120.32C670.72 158.208 599.04 143.36 522.752 143.36z"
        fill="#FFFFFF" p-id="2363"></path>
    <path
        d="M743.936 503.808c-5.632 0-10.752-3.072-13.824-8.192-4.096-7.68-1.024-16.896 6.656-20.48 30.72-15.872 46.592-41.472 54.784-60.416 3.584-7.68 12.288-11.264 20.48-7.68 7.68 3.584 11.264 12.288 7.68 20.48-10.24 23.04-30.208 55.296-69.12 75.264-1.536 0.512-4.096 1.024-6.656 1.024zM328.704 719.36c-2.048 0-3.584-0.512-5.632-1.024-67.072-26.112-97.792-77.824-110.08-105.984-3.072-7.68 0.512-16.896 8.192-19.968 7.68-3.584 16.896 0.512 19.968 8.192 10.24 24.064 35.84 67.584 92.672 89.6 7.68 3.072 11.776 11.776 8.704 19.968-1.536 5.632-7.68 9.216-13.824 9.216zM698.88 787.968c-6.144 0-12.288-4.096-14.336-10.24-2.56-8.192 1.536-16.896 9.728-19.456 38.4-13.312 56.832-44.032 64-60.928 3.584-7.68 12.288-11.264 19.968-8.192 7.68 3.584 11.264 12.288 8.192 19.968-9.216 22.016-32.768 60.928-82.432 77.824-2.048 0.512-3.584 1.024-5.12 1.024z"
        fill="#52B0FF" p-id="2364"></path>
    <path
        d="M778.24 344.064c-59.392 51.2-220.672 47.104-299.52-10.752-99.84-73.216-208.384-80.384-220.16-47.104-2.048 6.144-3.072 12.8-3.072 19.456 0 72.704 119.296 131.584 266.752 131.584 121.344 0 222.72-39.424 256-93.184zM628.736 808.96c1.536-3.584 2.56-7.68 2.56-11.776 0-29.184-48.64-52.736-108.544-52.736-49.152 0-90.624 15.872-103.936 37.376 0.512 0 31.232-25.6 97.792 5.12 41.472 19.456 75.776 28.672 112.128 22.016z"
        fill="#80AAFF" p-id="2365"></path>
</svg>