<?xml version="1.0" standalone="no"?><!DOCTYPE svg PUBLIC "-//W3C//DTD SVG 1.1//EN"
    "http://www.w3.org/Graphics/SVG/1.1/DTD/svg11.dtd">
<svg t="1668490047685" class="icon" viewBox="0 0 1024 1024" version="1.1"
    xmlns="http://www.w3.org/2000/svg" p-id="1287" xmlns:xlink="http://www.w3.org/1999/xlink"
    width="200" height="200">
    <title>wind</title>
    <path
        d="M128 539.648h663.552c57.344 0 104.448-46.592 104.448-104.448s-46.592-104.448-104.448-104.448c-57.344 0-104.448 46.592-104.448 104.448L128 539.648z"
        fill="#80AAFF" p-id="1288"></path>
    <path
        d="M218.112 440.32l315.392-72.704c44.032-10.24 71.68-54.272 61.44-98.816s-54.272-71.68-98.816-61.44-71.68 54.272-61.44 98.816L218.112 440.32z"
        fill="#B3CFFF" p-id="1289"></path>
    <path
        d="M265.216 632.832h406.016c51.712 0 93.184 41.984 93.184 93.184 0 51.712-41.984 93.184-93.184 93.184s-93.184-41.984-93.184-93.184l-312.832-93.184z"
        fill="#5886FC" p-id="1290"></path>
    <path
        d="M342.016 752.64c-1.536 0-3.072 0-4.608-1.024l-144.384-47.616c-8.192-2.56-12.288-11.264-9.728-19.456 2.56-8.192 11.264-12.288 19.456-9.728l144.384 47.616c8.192 2.56 12.288 11.264 9.728 19.456-2.56 6.656-8.704 10.752-14.848 10.752zM423.936 763.904c2.56-8.192 11.264-12.288 19.456-9.728l36.352 11.776c7.68 2.56 12.8 10.752 10.752 18.432-1.536 7.168-8.192 11.776-14.848 11.776-1.536 0-3.072 0-4.608-1.024l-37.376-12.288c-8.192-2.048-12.288-10.752-9.728-18.944M167.424 408.064c-5.12 0-9.728-2.56-12.8-6.656-4.608-7.168-3.072-16.384 4.096-21.504l27.136-18.944c7.168-4.608 16.384-3.072 21.504 4.096s3.072 16.384-4.096 21.504l-27.136 18.944c-2.56 1.536-5.632 2.56-8.704 2.56zM248.832 351.744c-5.12 0-9.728-2.56-12.8-6.656-4.608-7.168-3.072-16.384 4.096-21.504l87.04-59.904c7.168-4.608 16.384-3.072 21.504 4.096 4.608 7.168 3.072 16.384-4.096 21.504l-87.04 59.904c-2.56 1.536-5.632 2.56-8.704 2.56z"
        fill="#52B0FF" p-id="1291"></path>
    <path
        d="M821.76 409.088c33.28 31.232 50.688 114.688-185.856 130.56h156.16c57.344 0 104.448-46.592 104.448-104.448 0-57.344-46.592-104.448-104.448-104.448-0.512 0.512-53.76 0.512 29.696 78.336z"
        fill="#5886FC" p-id="1292"></path>
    <path
        d="M594.944 268.8c-6.656-29.184-28.16-51.2-54.784-59.904-28.16-8.704 38.4 38.4 2.56 105.984-25.088 47.616-83.456 69.632-83.456 69.632l74.752-17.408c43.52-10.24 71.168-54.272 60.928-98.304zM740.864 787.456c14.336-16.384 23.552-37.888 23.552-61.44 0-37.376-22.016-69.632-54.272-84.48-10.752-4.608-21.504-7.168-31.744-8.192-2.56 0-4.608-0.512-7.168-0.512H357.376s218.112 22.016 284.16 36.352c69.632 15.36 114.176 56.832 99.328 118.272z"
        fill="#80AAFF" p-id="1293"></path>
</svg>