<?xml version="1.0" standalone="no"?><!DOCTYPE svg PUBLIC "-//W3C//DTD SVG 1.1//EN"
    "http://www.w3.org/Graphics/SVG/1.1/DTD/svg11.dtd">
<svg t="1668490078948" class="icon" viewBox="0 0 1024 1024" version="1.1"
    xmlns="http://www.w3.org/2000/svg" p-id="3279" xmlns:xlink="http://www.w3.org/1999/xlink"
    width="200" height="200">
    <title>haze_3</title>
    <path
        d="M240.64 245.76h-30.72c-8.704 0-15.36-6.656-15.36-15.36s6.656-15.36 15.36-15.36h30.72c8.704 0 15.36 6.656 15.36 15.36s-6.656 15.36-15.36 15.36zM783.36 245.76h30.72c8.704 0 15.36-6.656 15.36-15.36s-6.656-15.36-15.36-15.36h-30.72c-8.704 0-15.36 6.656-15.36 15.36s6.656 15.36 15.36 15.36zM384 245.76h-30.72c-8.704 0-15.36-6.656-15.36-15.36s6.656-15.36 15.36-15.36h30.72c8.704 0 15.36 6.656 15.36 15.36s-6.656 15.36-15.36 15.36zM527.36 245.76h-30.72c-8.704 0-15.36-6.656-15.36-15.36s6.656-15.36 15.36-15.36h30.72c8.704 0 15.36 6.656 15.36 15.36s-6.656 15.36-15.36 15.36zM670.72 245.76h-30.72c-8.704 0-15.36-6.656-15.36-15.36s6.656-15.36 15.36-15.36h30.72c8.704 0 15.36 6.656 15.36 15.36s-6.656 15.36-15.36 15.36z"
        fill="#52B0FF" p-id="3280"></path>
    <path
        d="M240.64 778.24h-30.72c-8.704 0-15.36 6.656-15.36 15.36s6.656 15.36 15.36 15.36h30.72c8.704 0 15.36-6.656 15.36-15.36s-6.656-15.36-15.36-15.36zM783.36 778.24h30.72c8.704 0 15.36 6.656 15.36 15.36s-6.656 15.36-15.36 15.36h-30.72c-8.704 0-15.36-6.656-15.36-15.36s6.656-15.36 15.36-15.36zM384 778.24h-30.72c-8.704 0-15.36 6.656-15.36 15.36s6.656 15.36 15.36 15.36h30.72c8.704 0 15.36-6.656 15.36-15.36s-6.656-15.36-15.36-15.36zM527.36 778.24h-30.72c-8.704 0-15.36 6.656-15.36 15.36s6.656 15.36 15.36 15.36h30.72c8.704 0 15.36-6.656 15.36-15.36s-6.656-15.36-15.36-15.36zM670.72 778.24h-30.72c-8.704 0-15.36 6.656-15.36 15.36s6.656 15.36 15.36 15.36h30.72c8.704 0 15.36-6.656 15.36-15.36s-6.656-15.36-15.36-15.36z"
        fill="#52B0FF" p-id="3281"></path>
    <path d="M680.96 512m-189.44 0a189.44 189.44 0 1 0 378.88 0 189.44 189.44 0 1 0-378.88 0Z"
        fill="#80AAFF" p-id="3282"></path>
    <path d="M343.04 512m-189.44 0a189.44 189.44 0 1 0 378.88 0 189.44 189.44 0 1 0-378.88 0Z"
        fill="#5886FC" p-id="3283"></path>
    <path
        d="M391.168 629.248c-61.44-18.944-91.136-27.136-116.736-134.144-25.6-106.496-87.552-90.112-88.064-90.112-20.48 30.72-32.768 67.584-32.768 107.008 0 104.448 84.992 189.44 189.44 189.44 39.936 0 77.312-12.288 108.032-33.792 15.36-11.776-21.504-26.624-59.904-38.4z"
        fill="#80AAFF" p-id="3284"></path>
    <path
        d="M810.496 650.24c-1.024 1.024-1.536 1.536-2.56 2.048 38.4-34.816 62.464-84.992 62.464-140.288 0-104.448-84.992-189.44-189.44-189.44-18.944 0-36.864 2.56-53.76 7.68-36.352 11.776-43.52 88.064 96.768 112.128 146.432 25.088 134.656 164.864 86.528 207.872z"
        fill="#B3CFFF" p-id="3285"></path>
</svg>