<?xml version="1.0" standalone="no"?><!DOCTYPE svg PUBLIC "-//W3C//DTD SVG 1.1//EN"
    "http://www.w3.org/Graphics/SVG/1.1/DTD/svg11.dtd">
<svg t="1668490074340" class="icon" viewBox="0 0 1024 1024" version="1.1"
    xmlns="http://www.w3.org/2000/svg" p-id="2976" xmlns:xlink="http://www.w3.org/1999/xlink"
    width="200" height="200">
    <title>light_snow</title>
    <path
        d="M793.6 417.28c0-4.096 0.512-7.68 0.512-11.776 0-111.616-90.624-202.24-202.24-202.24-61.44 0-116.224 27.136-153.088 70.656-14.336-4.608-29.184-7.168-45.056-7.168-78.336 0-141.312 63.488-141.312 141.312 0 2.048 0 4.096 0.512 6.144-69.632 4.096-124.928 61.44-124.928 132.096s55.296 128 124.416 132.096l510.976 0.512c73.216 0 132.608-59.392 132.608-132.608 0-62.976-43.52-115.2-102.4-129.024"
        fill="#80AAFF" p-id="2977"></path>
    <path
        d="M570.88 375.808c71.168 71.68 171.008 79.36 222.72 41.472 0-4.096 0.512-7.68 0.512-11.776 0-111.616-90.624-202.24-202.24-202.24-57.344 0-109.056 24.064-145.92 62.464l-7.168 7.68c0 0.512 47.616 16.896 132.096 102.4z"
        fill="#B3CFFF" p-id="2978"></path>
    <path
        d="M490.496 520.704c-171.52-122.88-237.568-106.496-237.568-106.496-69.632 4.096-124.928 61.44-124.928 132.096s55.296 128 124.416 132.096l510.976 0.512c73.216 0 132.608-59.392 132.608-132.608 0-29.696-9.728-57.344-26.624-79.36 23.04 92.16-212.992 172.544-378.88 53.76z"
        fill="#5886FC" p-id="2979"></path>
    <path
        d="M556.032 779.264l-23.04-13.312 23.04-13.312c5.12-2.56 6.656-9.216 4.096-13.824-2.56-5.12-9.216-6.656-13.824-4.096l-24.064 13.312v-26.624c0-5.632-4.608-10.24-10.24-10.24s-10.24 4.608-10.24 10.24v26.624l-24.064-13.312c-5.12-2.56-11.264-1.024-13.824 4.096s-1.024 11.264 4.096 13.824l23.04 13.312-23.04 13.312c-5.12 2.56-6.656 9.216-4.096 13.824 2.048 3.584 5.12 5.12 8.704 5.12 1.536 0 3.584-0.512 5.12-1.536L501.76 783.36v26.624c0 5.632 4.608 10.24 10.24 10.24s10.24-4.608 10.24-10.24V783.36l24.064 13.312c1.536 1.024 3.072 1.536 5.12 1.536 3.584 0 7.168-2.048 8.704-5.12 2.56-4.608 1.024-10.752-4.096-13.824z"
        fill="#52B0FF" p-id="2980"></path>
</svg>