<?xml version="1.0" standalone="no"?><!DOCTYPE svg PUBLIC "-//W3C//DTD SVG 1.1//EN"
    "http://www.w3.org/Graphics/SVG/1.1/DTD/svg11.dtd">
<svg t="1668490083928" class="icon" viewBox="0 0 1024 1024" version="1.1"
    xmlns="http://www.w3.org/2000/svg" p-id="3585" xmlns:xlink="http://www.w3.org/1999/xlink"
    width="200" height="200">
    <title>moderate_snow</title>
    <path
        d="M793.6 398.336c0-4.096 0.512-7.68 0.512-11.776 0-111.616-90.624-202.24-202.24-202.24-61.44 0-116.224 27.136-153.088 70.656-14.336-4.608-29.184-7.168-45.056-7.168-78.336 0-141.312 63.488-141.312 141.312 0 2.048 0 4.096 0.512 6.144-69.632 3.584-124.928 61.44-124.928 132.096s55.296 128 124.416 132.096l510.976 0.512c73.216 0 132.608-59.392 132.608-132.608 0-62.976-43.52-115.712-102.4-129.024"
        fill="#80AAFF" p-id="3586"></path>
    <path
        d="M570.88 356.352c71.168 71.68 171.008 79.36 222.72 41.472 0-4.096 0.512-7.68 0.512-11.776 0-111.616-90.624-202.24-202.24-202.24-57.344 0-109.056 24.064-145.92 62.464l-7.168 7.68c0 1.024 47.616 17.408 132.096 102.4z"
        fill="#B3CFFF" p-id="3587"></path>
    <path
        d="M490.496 501.76C318.976 378.88 252.928 395.264 252.928 395.264 183.296 398.848 128 456.704 128 527.36s55.296 128 124.416 132.096l510.976 0.512c73.216 0 132.608-59.392 132.608-132.608 0-29.696-9.728-57.344-26.624-79.36 23.04 92.16-212.992 172.032-378.88 53.76z"
        fill="#5886FC" p-id="3588"></path>
    <path
        d="M450.56 719.872c-2.56-5.12-9.216-6.656-13.824-4.096l-24.064 13.312v-26.624c0-5.632-4.608-10.24-10.24-10.24s-10.24 4.608-10.24 10.24v26.624l-24.064-13.312c-5.12-2.56-11.264-1.024-13.824 4.096s-1.024 11.264 4.096 13.824l23.04 13.312-23.04 13.312c-5.12 2.56-6.656 9.216-4.096 13.824 2.048 3.584 5.12 5.12 8.704 5.12 1.536 0 3.584-0.512 5.12-1.536l24.064-13.312v26.624c0 5.632 4.608 10.24 10.24 10.24s10.24-4.608 10.24-10.24v-26.624l24.064 13.312c1.536 1.024 3.072 1.536 5.12 1.536 3.584 0 7.168-2.048 8.704-5.12 2.56-5.12 1.024-11.264-4.096-13.824l-23.04-13.312 23.04-13.312c5.12-2.56 7.168-8.704 4.096-13.824zM665.6 798.208l-23.04-13.312 23.04-13.312c5.12-2.56 6.656-9.216 4.096-13.824-2.56-5.12-9.216-6.656-13.824-4.096l-24.064 13.312v-26.624c0-5.632-4.608-10.24-10.24-10.24s-10.24 4.608-10.24 10.24v26.624l-24.064-13.312c-5.12-2.56-11.264-1.024-13.824 4.096s-1.024 11.264 4.096 13.824l23.04 13.312-23.04 13.312c-5.12 2.56-6.656 9.216-4.096 13.824 2.048 3.584 5.12 5.12 8.704 5.12 1.536 0 3.584-0.512 5.12-1.536l24.064-13.312v26.624c0 5.632 4.608 10.24 10.24 10.24s10.24-4.608 10.24-10.24v-26.624l24.064 13.312c1.536 1.024 3.072 1.536 5.12 1.536 3.584 0 7.168-2.048 8.704-5.12 2.56-4.608 0.512-10.752-4.096-13.824z"
        fill="#52B0FF" p-id="3589"></path>
</svg>