<?xml version="1.0" standalone="no"?><!DOCTYPE svg PUBLIC "-//W3C//DTD SVG 1.1//EN"
    "http://www.w3.org/Graphics/SVG/1.1/DTD/svg11.dtd">
<svg t="1668490092940" class="icon" viewBox="0 0 1024 1024" version="1.1"
    xmlns="http://www.w3.org/2000/svg" p-id="4201" xmlns:xlink="http://www.w3.org/1999/xlink"
    width="200" height="200">
    <title>thundershower</title>
    <path
        d="M607.744 688.64c1.024-1.536 0-3.584-2.048-3.584h-112.64c-1.536 0-2.56-1.536-2.048-3.072l51.2-139.776c1.024-2.56-2.56-4.608-4.096-2.048L416.256 716.8c-1.024 1.536 0 3.584 2.048 3.584h112.64c1.536 0 2.56 1.536 2.048 3.072l-51.2 139.776c-1.024 2.56 2.56 4.608 4.096 2.048l121.856-176.64z"
        fill="#FFD500" p-id="4202"></path>
    <path
        d="M793.6 371.2c0-4.096 0.512-7.68 0.512-11.776 0-111.616-90.624-202.24-202.24-202.24-61.44 0-116.224 27.136-153.088 70.656-14.336-4.608-29.184-7.168-45.056-7.168-78.336 0-141.312 63.488-141.312 141.312 0 2.048 0 4.096 0.512 6.144-69.632 4.096-124.928 61.44-124.928 132.096s55.296 128 124.416 132.096l510.976 0.512c73.216 0 132.608-59.392 132.608-132.608 0-62.464-43.52-115.2-102.4-129.024"
        fill="#80AAFF" p-id="4203"></path>
    <path
        d="M570.88 329.728c71.168 71.68 171.008 79.36 222.72 41.472 0-4.096 0.512-7.68 0.512-11.776 0-111.616-90.624-202.24-202.24-202.24-57.344 0-109.056 24.064-145.92 62.464l-7.168 7.68c0 0.512 47.616 17.408 132.096 102.4z"
        fill="#B3CFFF" p-id="4204"></path>
    <path
        d="M490.496 474.624c-171.52-122.88-237.568-106.496-237.568-106.496-69.632 4.096-124.928 61.44-124.928 132.096s55.296 128 124.416 132.096l510.976 0.512c73.216 0 132.608-59.392 132.608-132.608 0-29.696-9.728-57.344-26.624-79.36 23.04 92.16-212.992 172.544-378.88 53.76z"
        fill="#5886FC" p-id="4205"></path>
    <path
        d="M716.288 700.416c-3.072-0.512-43.008 50.688-46.592 68.608-3.584 17.92 8.192 35.328 26.112 38.4 17.92 3.584 35.328-8.192 38.4-26.112 3.584-17.92-14.848-79.872-17.92-80.896zM336.384 668.672c-3.072-0.512-43.008 50.688-46.592 68.608-3.584 17.92 8.192 35.328 26.112 38.4 17.92 3.584 35.328-8.192 38.4-26.112 3.584-17.92-14.336-80.384-17.92-80.896z"
        fill="#52B0FF" p-id="4206"></path>
</svg>