<?xml version="1.0" standalone="no"?><!DOCTYPE svg PUBLIC "-//W3C//DTD SVG 1.1//EN"
    "http://www.w3.org/Graphics/SVG/1.1/DTD/svg11.dtd">
<svg t="1668491216737" class="icon" viewBox="0 0 1024 1024" version="1.1"
    xmlns="http://www.w3.org/2000/svg" p-id="1266" xmlns:xlink="http://www.w3.org/1999/xlink"
    width="32" height="32">
    <title>wechat</title>
    <path
        d="M513.792 84.5312c-232.0896 0-420.864 188.8256-420.864 420.864 0 232.0896 188.8256 420.864 420.864 420.864 232.0896 0 420.864-188.8256 420.864-420.864s-188.8256-420.864-420.864-420.864z m0 800.8192c-209.5104 0-379.904-170.4448-379.904-379.904 0-209.5104 170.4448-379.904 379.904-379.904 209.5104 0 379.904 170.4448 379.904 379.904 0 209.4592-170.4448 379.904-379.904 379.904z"
        fill="#00A0E9" p-id="1267"></path>
    <path
        d="M489.5232 463.7696c37.7856-39.0656 85.1968-53.1968 139.1616-49.5616-12.4928-48.0256-41.728-81.9712-83.7632-105.3696-43.6736-24.32-90.624-32.6144-140.032-25.8048-55.6544 7.7312-102.5024 31.7952-134.656 78.848-30.3104 44.3392-34.9696 92.2624-11.9808 141.4656 12.4928 26.7776 33.1264 47.1552 56.6784 64.4608 4.5568 3.328 6.0416 6.1952 3.8912 11.9296-5.888 15.9744-10.9056 32.2048-16.896 50.1248 21.6576-10.8544 41.6256-21.0432 61.7472-30.7712 3.0208-1.4336 7.0656-1.8432 10.3936-1.3312 12.0832 1.8432 24.0128 4.9664 36.1472 6.2976 13.8752 1.536 27.8528 1.6896 42.7008 2.5088-13.0048-55.5008-1.8432-103.0656 36.608-142.7968z m16.7424-102.7584c13.7216 0 24.832 11.1104 24.832 24.832 0 13.7216-11.1104 24.832-24.832 24.832s-24.832-11.1104-24.832-24.832c0-13.7216 11.1104-24.832 24.832-24.832z m-128.1024 49.664c-13.7216 0-24.832-11.1104-24.832-24.832 0-13.7216 11.1104-24.832 24.832-24.832 13.7216 0 24.832 11.1104 24.832 24.832-0.0512 13.6704-11.1616 24.832-24.832 24.832z"
        fill="#00A0E9" p-id="1268"></path>
    <path
        d="M717.312 458.752c-36.3008-24.4736-76.9536-32.5632-120.1152-26.624-40.8064 5.5808-75.9808 22.5792-102.5536 54.8864-21.9648 26.6752-31.8464 57.3952-27.0848 91.6992 6.1952 44.2368 31.7952 75.4688 69.888 96.6144 41.7792 23.1936 86.272 26.9824 132.1472 14.1824 6.0928-1.6896 10.8032-1.024 16.1792 2.0992 13.312 7.8336 26.9824 15.104 41.5744 23.1936-0.6656-2.9184-0.9728-4.608-1.4848-6.2464-3.3792-11.4688-6.656-22.9376-10.3936-34.304-1.28-3.84-0.4608-6.0416 2.7136-8.3456 15.9744-11.6224 29.2352-25.9072 40.3968-42.0864 13.1584-19.0464 21.1456-40.0896 19.9168-63.6416-2.2016-44.6464-25.2928-77.2608-61.184-101.4272z m-143.4112 84.6848c-10.9568 0-19.8144-8.8576-19.8144-19.8144s8.8576-19.8144 19.8144-19.8144 19.8144 8.8576 19.8144 19.8144-8.8576 19.8144-19.8144 19.8144z m100.9664 0c-10.9568 0-19.8144-8.8576-19.8144-19.8144s8.8576-19.8144 19.8144-19.8144 19.8144 8.8576 19.8144 19.8144-8.9088 19.8144-19.8144 19.8144z"
        fill="#00A0E9" p-id="1269"></path>
</svg>