<?xml version="1.0" standalone="no"?><!DOCTYPE svg PUBLIC "-//W3C//DTD SVG 1.1//EN"
    "http://www.w3.org/Graphics/SVG/1.1/DTD/svg11.dtd">
<svg t="1668491224208" class="icon" viewBox="0 0 1024 1024" version="1.1"
    xmlns="http://www.w3.org/2000/svg" p-id="1553" xmlns:xlink="http://www.w3.org/1999/xlink"
    width="32" height="32">
    <title>alipay</title>
    <path
        d="M514.816 93.7984c-232.0896 0-420.864 188.8256-420.864 420.864s188.8256 420.864 420.864 420.864c232.0896 0 420.864-188.8256 420.864-420.864s-188.7744-420.864-420.864-420.864z m0 800.768c-209.5104 0-379.904-170.4448-379.904-379.904s170.4448-379.904 379.904-379.904c209.5104 0 379.904 170.4448 379.904 379.904 0 46.1312-8.2944 90.368-23.3984 131.2768l-241.3568-80.5376c23.2448-42.3936 38.7584-85.5552 47.3088-131.7888l1.0752-5.8368h-126.976v-34.3552h152.576V353.792h-153.088V282.4192H467.2v68.0448H323.072v39.3216h141.5168v37.2224H351.3344v32.8704h235.5712c-0.1024 0.7168-0.256 1.4336-0.3584 2.2016l-0.3584 2.048c-3.2256 20.736-11.6224 40.3968-19.712 59.4432l-3.5328 8.2432c-2.6112 6.1952-4.352 10.3424-6.144 11.1616-2.1504 0.9728-7.8336-0.0512-16.2304-1.792-0.9728-0.2048-1.8944-0.5632-2.8672-0.8704-0.6144-0.2048-1.28-0.4608-1.8944-0.6656-9.0112-2.8672-18.0736-5.7344-27.0848-8.6016-20.0704-6.4-40.8576-13.0048-61.3888-19.2512-41.6768-12.6976-82.9952-12.1344-122.7264 1.6896-60.3136 20.992-87.296 78.0288-70.7584 133.2736 12.1856 40.7552 43.4176 65.792 88.0128 74.6496 52.8384 10.496 102.6048 4.8128 147.968-16.896 35.2256-16.8448 67.84-41.4208 97.0752-72.96 2.6112-2.816 3.2256-2.9184 6.7584-1.1776 22.528 11.1616 45.568 22.3232 67.84 33.024l158.72 76.9024c-69.1712 93.4912-180.3264 154.2656-305.408 154.2656z m12.6976-298.7008c-1.6384 1.8944-3.2256 3.6864-4.864 5.376-28.3648 28.4672-63.6928 59.0336-110.3872 69.7856-39.424 9.0624-72.6528 4.608-101.5808-13.6704-15.5136-9.7792-24.832-29.3888-23.7056-49.9712 1.0752-20.1728 12.032-36.8128 30.0032-45.6704 17.3056-8.4992 36.3008-12.7488 57.4976-12.7488 9.1136 0 18.5856 0.768 28.5696 2.304 38.656 6.0416 77.1072 19.8144 124.4672 44.5952z"
        fill="#00A0E9" p-id="1554"></path>
</svg>