<?xml version="1.0" standalone="no"?><!DOCTYPE svg PUBLIC "-//W3C//DTD SVG 1.1//EN"
    "http://www.w3.org/Graphics/SVG/1.1/DTD/svg11.dtd">
<svg t="1668491210342" class="icon" viewBox="0 0 1024 1024" version="1.1"
    xmlns="http://www.w3.org/2000/svg" p-id="1119" xmlns:xlink="http://www.w3.org/1999/xlink"
    width="32" height="32">
    <title>calendar</title>
    <path
        d="M512.1024 83.7632c-232.0896 0-420.864 188.8256-420.864 420.864 0 232.0896 188.8256 420.864 420.864 420.864s420.864-188.8256 420.864-420.864-188.7744-420.864-420.864-420.864z m0 800.8192c-209.5104 0-379.904-170.4448-379.904-379.904 0-209.5104 170.4448-379.904 379.904-379.904s379.904 170.4448 379.904 379.904c0 209.4592-170.3936 379.904-379.904 379.904z"
        fill="#00A0E9" p-id="1120"></path>
    <path
        d="M675.6864 292.4032h-43.7248v-29.696c0-11.3152-9.1648-20.48-20.48-20.48s-20.48 9.1648-20.48 20.48v29.696H435.0464v-29.696c0-11.3152-9.1648-20.48-20.48-20.48s-20.48 9.1648-20.48 20.48v29.696h-45.568c-45.4144 0-82.3808 36.9664-82.3808 82.3808v297.8816c0 45.4144 36.9664 82.3808 82.3808 82.3808h327.2192c45.4144 0 82.3808-36.9664 82.3808-82.3808V374.784c0-45.4656-36.9664-82.3808-82.432-82.3808z m-327.168 40.96h45.568v41.5232c0 11.3152 9.1648 20.48 20.48 20.48s20.48-9.1648 20.48-20.48v-41.5232h156.0064v41.5232c0 11.3152 9.1648 20.48 20.48 20.48s20.48-9.1648 20.48-20.48v-41.5232h43.7248c22.8352 0 41.4208 18.5856 41.4208 41.4208v54.784H307.0976V374.784c0-22.8352 18.5856-41.4208 41.4208-41.4208z m327.168 380.7232h-327.168c-22.8352 0-41.4208-18.5856-41.4208-41.4208V470.528h410.0608v202.1376c0 22.8352-18.5856 41.4208-41.472 41.4208z"
        fill="#00A0E9" p-id="1121"></path>
    <path
        d="M392.2944 506.4192a28.4672 28.4672 0 0 0 0 56.9344 28.4672 28.4672 0 0 0 0-56.9344zM512.4096 506.4192a28.4672 28.4672 0 0 0 0 56.9344 28.4672 28.4672 0 0 0 0-56.9344zM392.2944 618.0352a28.4672 28.4672 0 0 0 0 56.9344 28.4672 28.4672 0 0 0 0-56.9344z"
        fill="#00A0E9" p-id="1122"></path>
    <path
        d="M512.4096 646.5024m-28.4672 0a28.4672 28.4672 0 1 0 56.9344 0 28.4672 28.4672 0 1 0-56.9344 0Z"
        fill="#00A0E9" p-id="1123"></path>
    <path d="M633.0368 506.4192a28.4672 28.4672 0 0 0 0 56.9344 28.4672 28.4672 0 0 0 0-56.9344z"
        fill="#00A0E9" p-id="1124"></path>
</svg>